<svg width="20.000000" height="12.000000" viewBox="0 0 20 12" fill="none" xmlns="http://www.w3.org/2000/svg" xmlns:xlink="http://www.w3.org/1999/xlink">
	<desc>
			Created with Pixso.
	</desc>
	<defs/>
	<path id="Shape" d="M1.00002 6.83334C0.539795 6.83334 0.166687 6.46027 0.166687 6.00003C0.166687 5.53979 0.539795 5.16669 1.00002 5.16669L19 5.16669C19.4603 5.16669 19.8334 5.53979 19.8334 6.00003C19.8334 6.46027 19.4603 6.83334 19 6.83334L1.00002 6.83334Z" fill="#FFFFFF" fill-opacity="1.000000" fill-rule="nonzero"/>
	<path id="Shape" d="M17.8214 6.00003L13.4107 1.58926C13.0853 1.26382 13.0853 0.736206 13.4107 0.410767C13.7361 0.0853271 14.2638 0.0853271 14.5892 0.410767L19.5892 5.41077C19.9147 5.73621 19.9147 6.26382 19.5892 6.58926L14.5892 11.5893C14.2638 11.9147 13.7361 11.9147 13.4107 11.5893C13.0853 11.2639 13.0853 10.7362 13.4107 10.4108L17.8214 6.00003Z" fill="#FFFFFF" fill-opacity="1.000000" fill-rule="nonzero"/>
</svg>
