<svg xmlns="http://www.w3.org/2000/svg" xmlns:xlink="http://www.w3.org/1999/xlink"><symbol id="arrow-down" viewBox="0 0 16.008 16"><g fill="none"><path d="M8.004 1v14M15.004 8l-7 7-7-7" stroke="#FFF" stroke-width="2" stroke-linejoin="round" stroke-linecap="round"/></g></symbol><symbol id="arrow-left" viewBox="0 0 16 16.008"><g fill="none"><path d="M15 8.004H1M8 15.004l-7-7 7-7" stroke="#196884" stroke-width="2" stroke-linejoin="round" stroke-linecap="round"/></g></symbol><symbol id="arrow-right" viewBox="0 0 16 16.008"><g fill="none"><path d="M1 8.004h14M8 1.004l7 7-7 7" stroke="#196884" stroke-width="2" stroke-linejoin="round" stroke-linecap="round"/></g></symbol><symbol id="arrow" viewBox="0 0 20 12"><g><path d="M1 6.833a.833.833 0 1 1 0-1.666h18a.833.833 0 1 1 0 1.666H1Z"/><path d="m17.821 6-4.41-4.41A.833.833 0 0 1 14.589.41l5 5a.833.833 0 0 1 0 1.18l-5 5a.833.833 0 0 1-1.178-1.18L17.82 6Z"/></g></symbol><symbol id="clipboard" viewBox="0 0 18 22"><g fill="none"><path d="M13 3h2a2 2 0 0 1 2 2v14a2 2 0 0 1-2 2H3a2 2 0 0 1-2-2V5a2 2 0 0 1 2-2h2" stroke="#278FB4" stroke-width="2" stroke-linejoin="round" stroke-linecap="round"/><rect x="5" y="1" rx="1" width="8" height="4" stroke="#278FB4" stroke-width="2" stroke-linejoin="round"/></g></symbol><symbol id="eye" viewBox="0 0 24 18"><g fill="none"><path d="M12 1c7 0 11 8 11 8s-4 8-11 8S1 9 1 9s4-8 11-8Z" stroke="#FFF" stroke-width="2" stroke-linejoin="round"/><path d="M15 9a3 3 0 1 0-6 0 3 3 0 0 0 6 0Z" stroke="#FFF" stroke-width="2" stroke-linejoin="round"/></g></symbol><symbol id="percent" viewBox="0 0 18 18"><g fill="none"><path d="M16 2 2 16" stroke="#278FB4" stroke-width="2" stroke-linejoin="round" stroke-linecap="round"/><path d="M6 3.5a2.5 2.5 0 1 0-5 0 2.5 2.5 0 0 0 5 0ZM17 14.5a2.5 2.5 0 1 0-5 0 2.5 2.5 0 0 0 5 0Z" stroke="#278FB4" stroke-width="2" stroke-linejoin="round"/></g></symbol><symbol id="play" viewBox="0 0 11 16"><g><path d="M11 8 0 16V0l11 8Z"/></g></symbol><symbol id="star-fill" viewBox="0 0 15.585 14.862"><g><path d="m8.161.245 1.982 4.692 5.076.436a.4.4 0 0 1 .228.7l-3.85 3.336 1.154 4.961a.4.4 0 0 1-.596.433l-4.362-2.63-4.362 2.63a.4.4 0 0 1-.596-.433L3.99 9.41.139 6.073a.4.4 0 0 1 .228-.701l5.075-.436L7.424.245a.4.4 0 0 1 .737 0Z"/></g></symbol><symbol id="star" viewBox="0 0 15.585 14.862"><g><path d="m8.161.245 1.982 4.692 5.076.436a.4.4 0 0 1 .228.7l-3.85 3.336 1.154 4.961a.4.4 0 0 1-.596.433l-4.362-2.63-4.362 2.63a.4.4 0 0 1-.596-.433L3.99 9.41.139 6.073a.4.4 0 0 1 .228-.7l5.075-.437L7.424.245a.4.4 0 0 1 .737 0Z" opacity=".1"/></g></symbol><symbol id="users" viewBox="0 0 24 20"><g fill="none"><path d="M17 19v-2a4 4 0 0 0-4-4H5a4 4 0 0 0-4 4v2" stroke="#278FB4" stroke-width="2" stroke-linejoin="round" stroke-linecap="round"/><path d="M13 5a4 4 0 1 0-8 0 4 4 0 0 0 8 0Z" stroke="#278FB4" stroke-width="2" stroke-linejoin="round"/><path d="M23 19v-2a4 4 0 0 0-3-3.87M16 1.13a4 4 0 0 1 0 7.75" stroke="#278FB4" stroke-width="2" stroke-linejoin="round" stroke-linecap="round"/></g></symbol></svg>