<svg width="32.000000" height="25.000000" viewBox="0 0 32 25" fill="none" xmlns="http://www.w3.org/2000/svg" xmlns:xlink="http://www.w3.org/1999/xlink">
	<desc>
			Created with Pixso.
	</desc>
	<defs/>
	<g opacity="0.200000">
		<path id="Shape" d="M18 14L18 0L32 0L32 14.2C32 23.8 23 25 23 25L21.8 22.2C21.8 22.2 25.8 21.6 26.6 18.4C27.4 16 25.8 14 25.8 14L18 14Z" fill="#444444" fill-opacity="1.000000" fill-rule="nonzero"/>
		<path id="Shape" d="M0 14L0 0L14 0L14 14.2C14 23.8 5 25 5 25L3.79999 22.2C3.79999 22.2 7.79999 21.6 8.59998 18.4C9.40002 16 7.79999 14 7.79999 14L0 14Z" fill="#444444" fill-opacity="1.000000" fill-rule="nonzero"/>
	</g>
</svg>
