<svg width="26.880005" height="21.000000" viewBox="0 0 26.88 21" fill="none" xmlns="http://www.w3.org/2000/svg" xmlns:xlink="http://www.w3.org/1999/xlink">
	<desc>
			Created with Pixso.
	</desc>
	<defs/>
	<g opacity="0.200000">
		<path id="Shape" d="M11.76 11.76L11.76 0L0 0L0 11.928C0 19.9919 7.56001 21 7.56001 21L8.56801 18.6479C8.56801 18.6479 5.20801 18.144 4.53601 15.4561C3.86401 13.4399 5.20801 11.76 5.20801 11.76L11.76 11.76Z" fill="#444444" fill-opacity="1.000000" fill-rule="nonzero"/>
		<path id="Shape" d="M26.88 11.76L26.88 0L15.12 0L15.12 11.928C15.12 19.9919 22.68 21 22.68 21L23.688 18.6479C23.688 18.6479 20.328 18.144 19.656 15.4561C18.984 13.4399 20.328 11.76 20.328 11.76L26.88 11.76Z" fill="#444444" fill-opacity="1.000000" fill-rule="nonzero"/>
	</g>
</svg>
