<svg width="22.000000" height="22.000000" viewBox="0 0 22 22" fill="none" xmlns="http://www.w3.org/2000/svg" xmlns:xlink="http://www.w3.org/1999/xlink">
	<desc>
			Created with Pixso.
	</desc>
	<defs/>
	<path id="Oval" d="M21 11C21 5.47717 16.5229 1 11 1C5.47714 1 1 5.47717 1 11C1 16.5228 5.47714 21 11 21C16.5229 21 21 16.5228 21 11Z" stroke="#278FB4" stroke-opacity="1.000000" stroke-width="2.000000" stroke-linejoin="round"/>
	<path id="Shape" d="M1 11L21 11" stroke="#278FB4" stroke-opacity="1.000000" stroke-width="2.000000" stroke-linejoin="round" stroke-linecap="round"/>
	<path id="Shape" d="M15 11C14.9228 14.7079 13.5013 18.2617 11 21C8.49872 18.2617 7.07724 14.7079 7 11C7.07724 7.29205 8.49872 3.73834 11 1L11 1C13.5013 3.73834 14.9228 7.29205 15 11Z" stroke="#278FB4" stroke-opacity="1.000000" stroke-width="2.000000" stroke-linejoin="round"/>
</svg>
