<svg width="24.000000" height="20.000000" viewBox="0 0 24 20" fill="none" xmlns="http://www.w3.org/2000/svg" xmlns:xlink="http://www.w3.org/1999/xlink">
	<desc>
			Created with Pixso.
	</desc>
	<defs/>
	<path id="Shape" d="M17 19L17 17C17 14.7908 15.2091 13 13 13L5 13C2.79086 13 1 14.7908 1 17L1 19" stroke="#278FB4" stroke-opacity="1.000000" stroke-width="2.000000" stroke-linejoin="round" stroke-linecap="round"/>
	<path id="Oval" d="M13 5C13 2.79086 11.2091 1 9 1C6.79086 1 5 2.79086 5 5C5 7.20917 6.79086 9 9 9C11.2091 9 13 7.20917 13 5Z" stroke="#278FB4" stroke-opacity="1.000000" stroke-width="2.000000" stroke-linejoin="round"/>
	<path id="Shape" d="M23 19L23 17C22.9986 15.1771 21.765 13.5858 20 13.13" stroke="#278FB4" stroke-opacity="1.000000" stroke-width="2.000000" stroke-linejoin="round" stroke-linecap="round"/>
	<path id="Shape" d="M16 1.13C17.7699 1.58316 19.0078 3.17801 19.0078 5.005C19.0078 6.83203 17.7699 8.42682 16 8.88" stroke="#278FB4" stroke-opacity="1.000000" stroke-width="2.000000" stroke-linejoin="round" stroke-linecap="round"/>
</svg>
